<?xml version="1.0" encoding="UTF-8"?><svg id="Layer_1" xmlns="http://www.w3.org/2000/svg" viewBox="0 0 877.24 267.94"><defs><style>.cls-1{font-family:Rubik-Light, Rubik;font-size:123.64px;font-weight:300;}.cls-1,.cls-2,.cls-3{fill:#fff;}.cls-2{font-family:Rubik-Bold, Rubik;font-size:176.62px;font-weight:700;letter-spacing:.06em;}.cls-4{letter-spacing:0em;}.cls-5{letter-spacing:0em;}.cls-6{letter-spacing:.02em;}.cls-7{letter-spacing:.02em;}.cls-8{letter-spacing:0em;}</style></defs><text class="cls-2" transform="translate(28.27 153.15)"><tspan x="0" y="0">OHI</tspan></text><path class="cls-3" d="M447.24,22.95c-36.58,0-66.23,29.65-66.23,66.23s29.65,66.23,66.23,66.23,66.23-29.65,66.23-66.23-29.65-66.23-66.23-66.23ZM447.29,135.9c-25.49,0-46.16-20.67-46.16-46.16s20.67-46.16,46.16-46.16,46.16,20.67,46.16,46.16-20.67,46.16-46.16,46.16Z"/><path class="cls-3" d="M446.88,58.17c-17.95,0-32.51,14.55-32.51,32.51s14.55,32.51,32.51,32.51,32.51-14.55,32.51-32.51-14.55-32.51-32.51-32.51ZM446.76,106.68c-8.79,0-15.92-7.13-15.92-15.92s7.13-15.92,15.92-15.92,15.92,7.13,15.92,15.92-7.13,15.92-15.92,15.92Z"/><text class="cls-1" transform="translate(218.05 229.69)"><tspan class="cls-7" x="0" y="0">lase</tspan><tspan class="cls-5" x="233.79" y="0">r</tspan><tspan class="cls-4" x="276.7" y="0"> </tspan><tspan class="cls-8" x="308.59" y="0">w</tspan><tspan class="cls-6" x="406.89" y="0">ash</tspan></text></svg>