<?xml version="1.0" encoding="UTF-8"?><svg id="Layer_1" xmlns="http://www.w3.org/2000/svg" viewBox="0 0 877.24 281.46"><defs><style>.cls-1{fill:#fff;}</style></defs><path class="cls-1" d="M91.15,154.92c-10.83,0-20.25-1.77-28.26-5.3-8.01-3.53-14.25-8.86-18.72-15.98-4.48-7.12-6.95-16.04-7.42-26.76-.12-5.06-.18-10.16-.18-15.28s.06-10.21.18-15.28c.47-10.6,2.97-19.52,7.51-26.76,4.53-7.24,10.83-12.69,18.9-16.34,8.06-3.65,17.4-5.48,27.99-5.48s20.07,1.83,28.08,5.48c8.01,3.65,14.31,9.1,18.9,16.34,4.59,7.24,7.06,16.16,7.42,26.76.23,5.06.35,10.16.35,15.28s-.12,10.22-.35,15.28c-.35,10.72-2.8,19.64-7.33,26.76-4.53,7.13-10.8,12.45-18.81,15.98-8.01,3.53-17.43,5.3-28.26,5.3ZM91.15,129.48c6.24,0,11.33-1.88,15.28-5.65,3.94-3.77,6.03-9.77,6.27-18.02.23-5.18.35-10.07.35-14.66s-.12-9.36-.35-14.31c-.24-5.53-1.27-10.04-3.09-13.51-1.83-3.47-4.33-6.03-7.51-7.68-3.18-1.65-6.83-2.47-10.95-2.47s-7.59.83-10.77,2.47c-3.18,1.65-5.71,4.21-7.59,7.68-1.88,3.47-2.94,7.98-3.18,13.51-.12,4.95-.18,9.71-.18,14.31s.06,9.48.18,14.66c.35,8.24,2.5,14.25,6.45,18.02,3.94,3.77,8.98,5.65,15.1,5.65Z"/><path class="cls-1" d="M181.58,153.15c-1.3,0-2.36-.41-3.18-1.24-.83-.82-1.24-1.88-1.24-3.18V33.93c0-1.29.41-2.35,1.24-3.18s1.88-1.24,3.18-1.24h22.78c1.29,0,2.38.41,3.27,1.24.88.83,1.32,1.88,1.32,3.18v42.57h43.45v-42.57c0-1.29.41-2.35,1.24-3.18.82-.82,1.88-1.24,3.18-1.24h22.78c1.29,0,2.35.41,3.18,1.24.82.83,1.24,1.88,1.24,3.18v114.81c0,1.18-.41,2.21-1.24,3.09-.83.88-1.88,1.32-3.18,1.32h-22.78c-1.3,0-2.36-.44-3.18-1.32-.83-.88-1.24-1.91-1.24-3.09v-43.98h-43.45v43.98c0,1.18-.44,2.21-1.32,3.09-.88.88-1.97,1.32-3.27,1.32h-22.78Z"/><path class="cls-1" d="M323.94,153.15c-1.3,0-2.36-.44-3.18-1.32-.83-.88-1.24-1.91-1.24-3.09V33.93c0-1.29.41-2.35,1.24-3.18s1.88-1.24,3.18-1.24h23.67c1.29,0,2.38.41,3.27,1.24.88.83,1.32,1.88,1.32,3.18v114.81c0,1.18-.44,2.21-1.32,3.09-.88.88-1.97,1.32-3.27,1.32h-23.67Z"/><path class="cls-1" d="M447.24,22.95c-36.58,0-66.23,29.65-66.23,66.23s29.65,66.23,66.23,66.23,66.23-29.65,66.23-66.23-29.65-66.23-66.23-66.23ZM447.29,135.9c-25.49,0-46.16-20.67-46.16-46.16s20.67-46.16,46.16-46.16,46.16,20.67,46.16,46.16-20.67,46.16-46.16,46.16Z"/><path class="cls-1" d="M446.88,58.17c-17.95,0-32.51,14.55-32.51,32.51s14.55,32.51,32.51,32.51,32.51-14.55,32.51-32.51-14.55-32.51-32.51-32.51ZM446.76,106.68c-8.79,0-15.92-7.13-15.92-15.92s7.13-15.92,15.92-15.92,15.92,7.13,15.92,15.92-7.13,15.92-15.92,15.92Z"/><path class="cls-1" d="M230.9,245.46c-.83,0-1.48-.25-1.98-.74s-.74-1.15-.74-1.98v-82.34c0-.82.25-1.48.74-1.98.49-.49,1.15-.74,1.98-.74h2.1c.82,0,1.48.25,1.98.74.49.49.74,1.16.74,1.98v82.34c0,.83-.25,1.48-.74,1.98-.49.49-1.16.74-1.98.74h-2.1Z"/><path class="cls-1" d="M276.03,246.69c-3.96,0-7.6-.82-10.94-2.47s-6.04-3.85-8.1-6.61c-2.06-2.76-3.09-5.87-3.09-9.33,0-5.6,2.27-10.1,6.8-13.48,4.53-3.38,10.43-5.56,17.68-6.55l19.53-2.72v-4.33c0-4.37-1.34-7.81-4.02-10.32-2.68-2.51-6.95-3.77-12.8-3.77-3.05,0-5.65.41-7.79,1.24-2.14.82-3.83,1.88-5.07,3.15-1.24,1.28-2.1,2.62-2.6,4.02-.33.99-.72,1.67-1.17,2.04-.45.37-1.05.56-1.79.56h-1.73c-.74,0-1.38-.27-1.92-.8-.54-.54-.8-1.17-.8-1.92,0-1.15.43-2.6,1.3-4.33.87-1.73,2.2-3.44,4.02-5.13,1.81-1.69,4.16-3.11,7.05-4.27,2.88-1.15,6.39-1.73,10.51-1.73,4.86,0,8.88.66,12.05,1.98,3.17,1.32,5.65,3.03,7.42,5.13,1.77,2.1,3.03,4.43,3.77,6.99.74,2.56,1.11,5.07,1.11,7.54v41.17c0,.83-.25,1.48-.74,1.98-.49.49-1.16.74-1.98.74h-2.1c-.82,0-1.48-.25-1.98-.74s-.74-1.15-.74-1.98v-5.81c-.99,1.48-2.39,2.97-4.2,4.45-1.81,1.48-4.14,2.74-6.99,3.77-2.84,1.03-6.41,1.55-10.69,1.55ZM277.27,239.52c3.79,0,7.25-.82,10.39-2.47,3.13-1.65,5.63-4.18,7.48-7.6,1.85-3.42,2.78-7.73,2.78-12.92v-4.2l-15.95,2.23c-6.76.91-11.87,2.47-15.33,4.7s-5.19,5.03-5.19,8.41c0,2.72.78,4.95,2.35,6.68,1.56,1.73,3.56,3.03,6,3.89,2.43.87,4.92,1.3,7.48,1.3Z"/><path class="cls-1" d="M348.23,246.69c-4.29,0-7.97-.58-11.07-1.73s-5.63-2.53-7.6-4.14c-1.98-1.61-3.44-3.19-4.39-4.76-.95-1.56-1.46-2.76-1.55-3.59-.08-.91.2-1.59.87-2.04.66-.45,1.28-.68,1.85-.68h1.85c.49,0,.93.08,1.3.25.37.17.84.62,1.42,1.36,1.07,1.4,2.31,2.74,3.71,4.02,1.4,1.28,3.19,2.29,5.38,3.03,2.18.74,4.92,1.11,8.22,1.11,4.95,0,9.03-.95,12.24-2.84,3.21-1.9,4.82-4.7,4.82-8.41,0-2.31-.64-4.16-1.92-5.56-1.28-1.4-3.44-2.64-6.49-3.71-3.05-1.07-7.17-2.18-12.36-3.34-5.19-1.24-9.17-2.72-11.93-4.45-2.76-1.73-4.64-3.73-5.63-6-.99-2.27-1.48-4.72-1.48-7.36,0-2.88.82-5.71,2.47-8.47,1.65-2.76,4.1-5.03,7.36-6.8,3.25-1.77,7.36-2.66,12.3-2.66,4.04,0,7.48.54,10.32,1.61,2.84,1.07,5.17,2.37,6.99,3.89,1.81,1.53,3.15,3.03,4.02,4.51.87,1.48,1.34,2.68,1.42,3.59.08.82-.17,1.48-.74,1.98-.58.49-1.24.74-1.98.74h-1.85c-.66,0-1.2-.14-1.61-.43-.41-.29-.78-.68-1.11-1.17-.82-1.32-1.81-2.55-2.97-3.71-1.16-1.15-2.7-2.08-4.64-2.78-1.94-.7-4.56-1.05-7.85-1.05-4.95,0-8.61,1.01-11,3.03-2.39,2.02-3.59,4.6-3.59,7.73,0,1.81.49,3.4,1.48,4.76.99,1.36,2.84,2.6,5.56,3.71,2.72,1.11,6.68,2.29,11.87,3.52,5.27,1.16,9.44,2.58,12.49,4.27,3.05,1.69,5.21,3.69,6.49,6,1.28,2.31,1.92,5.03,1.92,8.16,0,3.3-.93,6.35-2.78,9.15-1.85,2.8-4.62,5.05-8.28,6.74-3.67,1.69-8.18,2.53-13.54,2.53Z"/><path class="cls-1" d="M415.37,246.69c-8,0-14.34-2.62-19.04-7.85-4.7-5.23-7.38-12.1-8.04-20.59-.08-1.24-.12-2.88-.12-4.95s.04-3.71.12-4.95c.41-5.6,1.73-10.55,3.96-14.84,2.23-4.29,5.3-7.62,9.21-10.01,3.91-2.39,8.55-3.59,13.91-3.59,5.77,0,10.67,1.28,14.71,3.83,4.04,2.56,7.15,6.22,9.33,11,2.18,4.78,3.28,10.47,3.28,17.06v1.85c0,.83-.27,1.48-.8,1.98-.54.49-1.22.74-2.04.74h-44.01v1.24c.16,3.71,1.03,7.23,2.6,10.57,1.56,3.34,3.79,6.06,6.68,8.16,2.88,2.1,6.31,3.15,10.26,3.15,3.54,0,6.49-.54,8.84-1.61,2.35-1.07,4.22-2.24,5.63-3.52,1.4-1.28,2.31-2.24,2.72-2.91.74-1.07,1.32-1.71,1.73-1.92.41-.21,1.07-.31,1.98-.31h1.98c.74,0,1.38.23,1.92.68.54.45.76,1.05.68,1.79-.08,1.16-.72,2.58-1.92,4.27-1.2,1.69-2.89,3.36-5.07,5.01-2.19,1.65-4.84,3.01-7.97,4.08-3.13,1.07-6.64,1.61-10.51,1.61ZM395.83,209.48h39.32v-.49c0-4.12-.78-7.83-2.35-11.13-1.57-3.3-3.83-5.91-6.8-7.85-2.97-1.94-6.51-2.91-10.63-2.91s-7.65.97-10.57,2.91c-2.93,1.94-5.15,4.56-6.68,7.85-1.53,3.3-2.29,7.01-2.29,11.13v.49Z"/><path class="cls-1" d="M464.57,245.46c-.82,0-1.48-.25-1.98-.74s-.74-1.15-.74-1.98v-58.73c0-.82.25-1.5.74-2.04.49-.54,1.15-.8,1.98-.8h1.98c.82,0,1.5.27,2.04.8.54.54.8,1.22.8,2.04v5.69c1.48-2.88,3.63-5.03,6.43-6.43,2.8-1.4,6.26-2.1,10.39-2.1h4.57c.82,0,1.48.25,1.98.74s.74,1.16.74,1.98v1.73c0,.83-.25,1.48-.74,1.98-.49.49-1.16.74-1.98.74h-5.32c-4.95,0-8.86,1.44-11.75,4.33s-4.33,6.8-4.33,11.75v38.33c0,.83-.27,1.48-.8,1.98-.54.49-1.22.74-2.04.74h-1.98Z"/><path class="cls-1" d="M553.34,245.46c-1.07,0-1.9-.25-2.47-.74-.58-.49-1.07-1.28-1.48-2.35l-17.43-57.37c-.17-.49-.25-.95-.25-1.36,0-.66.25-1.24.74-1.73.5-.49,1.07-.74,1.73-.74h2.35c.82,0,1.46.23,1.92.68.45.45.72.85.8,1.17l15.21,51.43,16.2-50.81c.16-.49.49-1.03.99-1.61.49-.58,1.28-.87,2.35-.87h2.47c1.07,0,1.87.29,2.41.87.54.58.84,1.11.93,1.61l16.2,50.81,15.21-51.43c.08-.33.35-.72.8-1.17.45-.45,1.09-.68,1.92-.68h2.35c.66,0,1.24.25,1.73.74.5.49.74,1.07.74,1.73,0,.41-.08.87-.25,1.36l-17.43,57.37c-.33,1.07-.78,1.85-1.36,2.35-.58.49-1.44.74-2.6.74h-2.1c-1.07,0-1.96-.25-2.66-.74-.7-.49-1.22-1.28-1.55-2.35l-15.58-48.71-15.58,48.71c-.33,1.07-.83,1.85-1.48,2.35-.66.49-1.57.74-2.72.74h-2.1Z"/><path class="cls-1" d="M652.25,246.69c-3.96,0-7.6-.82-10.94-2.47s-6.04-3.85-8.1-6.61c-2.06-2.76-3.09-5.87-3.09-9.33,0-5.6,2.27-10.1,6.8-13.48,4.53-3.38,10.43-5.56,17.68-6.55l19.53-2.72v-4.33c0-4.37-1.34-7.81-4.02-10.32-2.68-2.51-6.95-3.77-12.8-3.77-3.05,0-5.65.41-7.79,1.24-2.14.82-3.83,1.88-5.07,3.15-1.24,1.28-2.1,2.62-2.6,4.02-.33.99-.72,1.67-1.17,2.04-.45.37-1.05.56-1.79.56h-1.73c-.74,0-1.38-.27-1.92-.8-.54-.54-.8-1.17-.8-1.92,0-1.15.43-2.6,1.3-4.33s2.2-3.44,4.02-5.13c1.81-1.69,4.16-3.11,7.05-4.27,2.88-1.15,6.39-1.73,10.51-1.73,4.86,0,8.88.66,12.05,1.98,3.17,1.32,5.64,3.03,7.42,5.13,1.77,2.1,3.03,4.43,3.77,6.99.74,2.56,1.11,5.07,1.11,7.54v41.17c0,.83-.25,1.48-.74,1.98-.5.49-1.16.74-1.98.74h-2.1c-.83,0-1.48-.25-1.98-.74s-.74-1.15-.74-1.98v-5.81c-.99,1.48-2.39,2.97-4.2,4.45-1.81,1.48-4.14,2.74-6.99,3.77s-6.41,1.55-10.69,1.55ZM653.49,239.52c3.79,0,7.25-.82,10.38-2.47,3.13-1.65,5.63-4.18,7.48-7.6,1.85-3.42,2.78-7.73,2.78-12.92v-4.2l-15.95,2.23c-6.76.91-11.87,2.47-15.33,4.7s-5.19,5.03-5.19,8.41c0,2.72.78,4.95,2.35,6.68,1.56,1.73,3.56,3.03,6,3.89,2.43.87,4.92,1.3,7.48,1.3Z"/><path class="cls-1" d="M724.46,246.69c-4.29,0-7.97-.58-11.07-1.73-3.09-1.15-5.63-2.53-7.6-4.14-1.98-1.61-3.44-3.19-4.39-4.76-.95-1.56-1.46-2.76-1.55-3.59-.08-.91.21-1.59.87-2.04.66-.45,1.28-.68,1.85-.68h1.85c.49,0,.93.08,1.3.25.37.17.84.62,1.42,1.36,1.07,1.4,2.31,2.74,3.71,4.02,1.4,1.28,3.19,2.29,5.38,3.03,2.18.74,4.92,1.11,8.22,1.11,4.95,0,9.03-.95,12.24-2.84,3.21-1.9,4.82-4.7,4.82-8.41,0-2.31-.64-4.16-1.92-5.56-1.28-1.4-3.44-2.64-6.49-3.71-3.05-1.07-7.17-2.18-12.36-3.34-5.19-1.24-9.17-2.72-11.93-4.45-2.76-1.73-4.64-3.73-5.62-6-.99-2.27-1.48-4.72-1.48-7.36,0-2.88.82-5.71,2.47-8.47,1.65-2.76,4.1-5.03,7.36-6.8,3.26-1.77,7.36-2.66,12.3-2.66,4.04,0,7.48.54,10.32,1.61,2.84,1.07,5.17,2.37,6.99,3.89,1.81,1.53,3.15,3.03,4.02,4.51.87,1.48,1.34,2.68,1.42,3.59.08.82-.17,1.48-.74,1.98-.58.49-1.24.74-1.98.74h-1.85c-.66,0-1.2-.14-1.61-.43-.41-.29-.79-.68-1.11-1.17-.83-1.32-1.81-2.55-2.97-3.71-1.16-1.15-2.7-2.08-4.64-2.78-1.94-.7-4.56-1.05-7.85-1.05-4.95,0-8.61,1.01-11,3.03-2.39,2.02-3.59,4.6-3.59,7.73,0,1.81.5,3.4,1.48,4.76.99,1.36,2.84,2.6,5.56,3.71,2.72,1.11,6.68,2.29,11.87,3.52,5.27,1.16,9.44,2.58,12.49,4.27,3.05,1.69,5.21,3.69,6.49,6,1.28,2.31,1.92,5.03,1.92,8.16,0,3.3-.93,6.35-2.78,9.15-1.85,2.8-4.62,5.05-8.28,6.74-3.67,1.69-8.18,2.53-13.54,2.53Z"/><path class="cls-1" d="M770.57,245.46c-.83,0-1.48-.25-1.98-.74-.49-.49-.74-1.15-.74-1.98v-82.34c0-.82.25-1.48.74-1.98.5-.49,1.15-.74,1.98-.74h2.1c.82,0,1.48.25,1.98.74.49.49.74,1.16.74,1.98v29.3c2.23-2.88,4.92-5.23,8.1-7.05,3.17-1.81,7.4-2.72,12.67-2.72,5.6,0,10.28,1.22,14.03,3.65,3.75,2.43,6.55,5.73,8.41,9.89,1.85,4.16,2.78,8.88,2.78,14.16v35.11c0,.83-.25,1.48-.74,1.98-.5.49-1.16.74-1.98.74h-2.1c-.83,0-1.48-.25-1.98-.74-.5-.49-.74-1.15-.74-1.98v-34.49c0-6.59-1.61-11.76-4.82-15.52-3.21-3.75-7.91-5.63-14.09-5.63-5.85,0-10.57,1.88-14.16,5.63-3.59,3.75-5.38,8.92-5.38,15.52v34.49c0,.83-.25,1.48-.74,1.98-.5.49-1.16.74-1.98.74h-2.1Z"/></svg>